<?xml version="1.0" encoding="utf-8"?>
<!-- Generator: Adobe Illustrator 23.0.2, SVG Export Plug-In . SVG Version: 6.00 Build 0)  -->
<svg version="1.1" id="Layer_1" xmlns="http://www.w3.org/2000/svg" xmlns:xlink="http://www.w3.org/1999/xlink" x="0px" y="0px"
	 viewBox="0 0 349 76" style="enable-background:new 0 0 349 76;" xml:space="preserve">
<style type="text/css">
	.st0{fill:#231F20;}
	.st1{fill:url(#SVGID_1_);}
	.st2{clip-path:url(#SVGID_3_);}
	.st3{fill:url(#SVGID_4_);}
	.st4{clip-path:url(#SVGID_6_);}
	.st5{fill:url(#SVGID_7_);}
	.st6{clip-path:url(#SVGID_9_);}
	.st7{fill:url(#SVGID_10_);}
</style>
<title>logo</title>
<g id="text">
	<path class="st0" d="M333.6,16c3.6,3.7,3.6,9.6,0,13.3c-3.5,3.6-9.2,3.6-12.7,0.2c-0.1-0.1-0.1-0.1-0.2-0.2
		c-3.6-3.7-3.6-9.6,0-13.3c3.5-3.6,9.2-3.6,12.7-0.2C333.5,15.9,333.5,15.9,333.6,16 M327.1,10.7c-3.2-0.1-6.3,1.2-8.6,3.5
		c-4.6,4.6-4.7,12-0.1,16.7l0.1,0.1c4.8,4.7,12.4,4.7,17.2,0c4.6-4.6,4.7-12,0.1-16.7l-0.1-0.1C333.4,11.9,330.3,10.6,327.1,10.7
		 M301.4,11l-6,8.6V11h-2.9v23.3h2.9v-9.8l1.5-2.2l8.4,12h3.4l-10-14.4l6.1-8.9H301.4z M269.3,11v23.3h12.6v-2.5h-9.7V24h9.7v-2.5
		h-9.7v-7.8h9.7V11H269.3z M255.7,19.7c1-0.9,1.5-2.2,1.5-3.6s-0.5-2.7-1.5-3.6c-1-1-2.4-1.6-3.8-1.5h-7.3v23.3h8
		c1.8-0.2,3.5-1,4.8-2.3c1.5-1.4,2.4-3.4,2.4-5.5s-0.8-4-2.3-5.4C257,20.5,256.4,20,255.7,19.7 M251.9,13.5c0.6,0,1.2,0.3,1.7,0.7
		c0.5,0.5,0.8,1.2,0.7,1.9c0,0.7-0.3,1.4-0.8,1.9c-0.4,0.4-0.9,0.6-1.5,0.6h-4.7v-5.1H251.9z M247.4,31.7V21.2h4.2
		c1.3,0,2.6,0.5,3.5,1.5c2,2.1,2,5.4,0,7.5c-0.9,1-2.2,1.5-3.5,1.5H247.4z M231.1,11l-7.4,9.8l-7.5-9.8h-3.1v23.3h2.9V15.4l7.7,10
		l7.6-10v18.9h2.9V11H231.1z M190.1,11v23.3h12.7v-2.5h-9.7V24h9.7v-2.5h-9.7v-7.8h9.7V11H190.1z M180.8,13.5V11h-14v2.5h5.6v20.7
		h2.9V13.6L180.8,13.5z M138.6,11v23.3h2.9V16.2l12.9,18.1h3.2V11h-2.9v18.6L141.5,11H138.6z M124.9,34.3h2.9V11h-2.9V34.3z"/>
	<path class="st0" d="M332.1,55.5V64h1.1v-6.7L338,64h1.2v-8.6H338v6.8l-4.9-6.8L332.1,55.5z M326.4,57.3c1.3,1.4,1.3,3.5,0,4.9
		c-0.6,0.6-1.5,1-2.4,1s-1.7-0.4-2.4-1c-1.3-1.4-1.3-3.5,0-4.9c0.6-0.6,1.5-1,2.4-1S325.8,56.7,326.4,57.3 M324,55.4
		c-1.2,0-2.3,0.4-3.1,1.3c-1.7,1.7-1.7,4.4,0,6.1l0,0c1.7,1.7,4.6,1.7,6.3,0c1.7-1.7,1.7-4.4,0-6.1l0,0
		C326.4,55.8,325.2,55.3,324,55.4 M314.9,64h1.1v-8.6h-1.1V64z M311.4,56.4v-0.9h-5.1v0.9h2V64h1.1v-7.6H311.4z M299.9,55.5
		l-3.1,8.6h1.1l1.3-3.6h2.3l1.3,3.6h1.1l-3.1-8.6H299.9z M299.6,59.5l0.8-2.3l0.8,2.3H299.6z M292.6,64h1.2l-1.9-3
		c0.4-0.1,0.7-0.4,1-0.7c1.1-1.1,1.1-2.9,0-4c-0.5-0.5-1.1-0.8-1.8-0.9h-2.4V64h1.1v-2.8h1L292.6,64z M290.8,56.4
		c0.5,0,1,0.2,1.3,0.6c0.7,0.8,0.7,2,0,2.8c-0.3,0.4-0.8,0.6-1.3,0.6h-1.1v-3.9L290.8,56.4z M285.3,56.4v-0.9h-5.1v0.9h2V64h1.1
		v-7.6H285.3z M275.6,60.3c0.3,0.3,0.5,0.8,0.5,1.2c0,0.5-0.2,0.9-0.5,1.2s-0.7,0.5-1.1,0.5s-0.8-0.2-1.1-0.5
		c-0.3-0.4-0.5-0.9-0.5-1.4l-1,0.4c0.1,0.6,0.3,1.2,0.8,1.6c1.1,1.1,2.8,1.1,3.8,0c0.5-0.5,0.8-1.2,0.8-1.9s-0.3-1.4-0.8-1.9
		s-1.1-0.8-1.7-1c-0.3-0.1-0.6-0.3-0.8-0.6c-0.4-0.4-0.4-1.1,0-1.5c0.2-0.2,0.4-0.3,0.7-0.3c0.3,0,0.5,0.1,0.7,0.3
		c0.1,0.2,0.3,0.4,0.3,0.6l1-0.4c-0.1-0.3-0.3-0.6-0.5-0.9c-0.4-0.4-0.9-0.6-1.5-0.6c-0.5,0-1.1,0.2-1.4,0.6
		c-0.4,0.4-0.6,0.8-0.6,1.4c0,0.5,0.2,1,0.6,1.3c0.4,0.4,0.9,0.7,1.5,0.9C274.9,59.7,275.3,60,275.6,60.3 M267,64h1.1v-8.6H267V64z
		 M256.1,55.5V64h1.1v-6.7l4.7,6.7h1.2v-8.6H262v6.8l-4.9-6.8L256.1,55.5L256.1,55.5z M251.1,64h1.1v-8.6h-1.1V64z M246.1,55.5
		l-2.7,3.6l-2.7-3.6h-1.1V64h1v-7l2.8,3.7l2.8-3.7v7h1.1v-8.6L246.1,55.5L246.1,55.5z M231.4,56.5c0.9-0.1,1.8,0.3,2.5,0.9
		c0.7,0.6,1,1.5,1,2.4s-0.3,1.8-1,2.4c-0.7,0.6-1.6,0.9-2.5,0.9h-0.7v-6.6C230.7,56.5,231.4,56.5,231.4,56.5z M229.6,55.5V64h1.8
		c1.2,0.1,2.4-0.4,3.3-1.2c1.7-1.7,1.7-4.4,0-6.1l0,0c-0.9-0.8-2.1-1.3-3.3-1.2H229.6z M222.3,55.5l-3.1,8.6h1.1l1.3-3.6h2.3
		l1.3,3.6h1.1l-3.1-8.6H222.3z M222,59.5l0.8-2.3l0.8,2.3H222z M210.9,56.4v-0.9h-5.1v0.9h2V64h1.1v-7.6H210.9z M195.4,55.5V64h1.1
		v-6.7l4.8,6.7h1.2v-8.6h-1.1v6.8l-4.9-6.8L195.4,55.5L195.4,55.5z M186.8,55.5V64h4.7v-0.9H188v-2.9h3.6v-0.9H188v-2.9h3.6v-0.9
		L186.8,55.5z M181.9,55.5l-2.7,3.6l-2.7-3.6h-1.1V64h1.1v-7l2.8,3.7l2.8-3.7v7h1.1v-8.6L181.9,55.5L181.9,55.5z M172,56.4v-0.9
		h-5.1v0.9h2V64h1.1v-7.6H172z M162.3,60.3c0.3,0.3,0.5,0.8,0.5,1.2c0,0.5-0.2,0.9-0.5,1.2s-0.7,0.5-1.1,0.5c-0.4,0-0.8-0.2-1.1-0.5
		c-0.3-0.4-0.5-0.9-0.5-1.4l-1,0.4c0.1,0.6,0.3,1.1,0.8,1.6c1.1,1.1,2.8,1.1,3.8,0c0.5-0.5,0.8-1.2,0.8-1.9s-0.3-1.4-0.8-1.9
		s-1.1-0.8-1.7-1c-0.3-0.1-0.6-0.3-0.8-0.6c-0.4-0.4-0.4-1.1,0-1.5c0.2-0.2,0.4-0.3,0.6-0.3c0.3,0,0.5,0.1,0.7,0.3
		c0.1,0.2,0.2,0.4,0.3,0.6l1-0.4c-0.1-0.3-0.3-0.6-0.6-0.8c-0.4-0.4-0.9-0.6-1.5-0.6c-0.5,0-1.1,0.2-1.4,0.6
		c-0.4,0.4-0.6,0.8-0.6,1.4c0,0.5,0.2,1,0.6,1.3c0.4,0.4,0.9,0.7,1.5,0.9C161.5,59.7,161.9,60,162.3,60.3 M150.3,55.5V64h4.6v-0.9
		h-3.6v-2.9h3.6v-0.9h-3.6v-2.9h3.6v-0.9L150.3,55.5z M143.6,62.1l-2.3-6.6h-1.1l3.1,8.5h0.8l3.1-8.6h-1.1L143.6,62.1z M130,55.5V64
		h1.1v-6.7l4.7,6.7h1.2v-8.6h-1.1v6.8l-4.9-6.8L130,55.5z M125,64h1.1v-8.6H125V64z"/>
	
		<radialGradient id="SVGID_1_" cx="-643.1646" cy="302.2371" r="0.9978" gradientTransform="matrix(107.1 0 0 -107.1 69115.0156 32415.209)" gradientUnits="userSpaceOnUse">
		<stop  offset="0" style="stop-color:#F6A76C"/>
		<stop  offset="0.4" style="stop-color:#F4A56B"/>
		<stop  offset="0.58" style="stop-color:#EDA068"/>
		<stop  offset="0.71" style="stop-color:#E09762"/>
		<stop  offset="0.82" style="stop-color:#CE8A5A"/>
		<stop  offset="0.91" style="stop-color:#B77950"/>
		<stop  offset="0.99" style="stop-color:#9B6443"/>
		<stop  offset="1" style="stop-color:#996242"/>
	</radialGradient>
	<polyline class="st1" points="125,44 339.2,44 339.2,46 125,46 	"/>
</g>
<g id="logo">
	<g>
		<g>
			<defs>
				<path id="SVGID_2_" d="M50.7,37.4c0-5.2,4.2-9.5,9.5-9.5s9.5,4.2,9.5,9.5c0,5.2-4.2,9.5-9.5,9.5l0,0
					C55,46.9,50.7,42.7,50.7,37.4 M46.9,37.4c0,7.4,6,13.3,13.3,13.3s13.3-6,13.3-13.3s-6-13.3-13.3-13.3l0,0
					C52.9,24.1,46.9,30.1,46.9,37.4"/>
			</defs>
			<clipPath id="SVGID_3_">
				<use xlink:href="#SVGID_2_"  style="overflow:visible;"/>
			</clipPath>
			<g class="st2">
				
					<linearGradient id="SVGID_4_" gradientUnits="userSpaceOnUse" x1="-636.6754" y1="288.0477" x2="-635.6754" y2="288.0477" gradientTransform="matrix(26.63 0 0 -26.63 17001.8496 7708.1099)">
					<stop  offset="0" style="stop-color:#996242"/>
					<stop  offset="0.19" style="stop-color:#BA7B51"/>
					<stop  offset="0.38" style="stop-color:#D48E5D"/>
					<stop  offset="0.58" style="stop-color:#E79C65"/>
					<stop  offset="0.78" style="stop-color:#F2A46A"/>
					<stop  offset="1" style="stop-color:#F6A76C"/>
				</linearGradient>
				<rect x="46.9" y="24.1" class="st3" width="26.6" height="26.6"/>
			</g>
		</g>
	</g>
	<g>
		<g>
			<defs>
				<path id="SVGID_5_" d="M49.4,66.5H31.1V43.2L49.4,66.5z M31.1,8.4h18.2L31.1,31V8.4z M27.1,42h-18V8.4h18V42z M27.1,66.5h-18
					V45.8h18V66.5z M57.3,4.5h-52v65.7h52L31.1,37.1L57.3,4.5z"/>
			</defs>
			<clipPath id="SVGID_6_">
				<use xlink:href="#SVGID_5_"  style="overflow:visible;"/>
			</clipPath>
			<g class="st4">
				
					<linearGradient id="SVGID_7_" gradientUnits="userSpaceOnUse" x1="-641.9282" y1="297.2276" x2="-640.9286" y2="297.2276" gradientTransform="matrix(52.02 0 0 -52.02 33397.8906 15499.1299)">
					<stop  offset="0" style="stop-color:#996242"/>
					<stop  offset="0.19" style="stop-color:#BA7B51"/>
					<stop  offset="0.38" style="stop-color:#D48E5D"/>
					<stop  offset="0.58" style="stop-color:#E79C65"/>
					<stop  offset="0.78" style="stop-color:#F2A46A"/>
					<stop  offset="1" style="stop-color:#F6A76C"/>
				</linearGradient>
				<rect x="5.3" y="4.5" class="st5" width="52" height="65.7"/>
			</g>
		</g>
	</g>
	<g>
		<g>
			<defs>
				<path id="SVGID_8_" d="M111.3,20.3h-18V8.4h18V20.3z M111.3,66.5h-18V24.1h18V66.5z M89.3,31L71.1,8.4h18.2V31z M89.3,66.5H71.1
					l18.3-23.3L89.3,66.5z M89.5,4.5H63.2L89.4,37L63.2,70.3h52V4.5H89.5z"/>
			</defs>
			<clipPath id="SVGID_9_">
				<use xlink:href="#SVGID_8_"  style="overflow:visible;"/>
			</clipPath>
			<g class="st6">
				
					<linearGradient id="SVGID_10_" gradientUnits="userSpaceOnUse" x1="-641.9282" y1="297.2278" x2="-640.9286" y2="297.2278" gradientTransform="matrix(52.02 0 0 -52.02 33455.7891 15499.1396)">
					<stop  offset="0" style="stop-color:#996242"/>
					<stop  offset="0.19" style="stop-color:#BA7B51"/>
					<stop  offset="0.38" style="stop-color:#D48E5D"/>
					<stop  offset="0.58" style="stop-color:#E79C65"/>
					<stop  offset="0.78" style="stop-color:#F2A46A"/>
					<stop  offset="1" style="stop-color:#F6A76C"/>
				</linearGradient>
				<rect x="63.2" y="4.5" class="st7" width="52" height="65.7"/>
			</g>
		</g>
	</g>
</g>
</svg>
