<?xml version="1.0" encoding="utf-8"?>
<!-- Generator: Adobe Illustrator 23.0.2, SVG Export Plug-In . SVG Version: 6.00 Build 0)  -->
<svg version="1.1" id="logo-elements" xmlns="http://www.w3.org/2000/svg" xmlns:xlink="http://www.w3.org/1999/xlink" x="0px"
	 y="0px" viewBox="0 0 214.6 137" style="enable-background:new 0 0 214.6 137;" xml:space="preserve">
<style type="text/css">
	.st0{fill:#231F20;}
	.st1{fill:url(#SVGID_1_);}
	.st2{clip-path:url(#SVGID_3_);}
	.st3{fill:url(#SVGID_4_);}
	.st4{clip-path:url(#SVGID_6_);}
	.st5{fill:url(#SVGID_7_);}
	.st6{clip-path:url(#SVGID_9_);}
	.st7{fill:url(#SVGID_10_);}
</style>
<path class="st0" d="M209,89c3.6,3.7,3.6,9.6,0,13.3c-3.5,3.6-9.2,3.6-12.7,0.2c-0.1-0.1-0.1-0.1-0.2-0.2c-3.6-3.7-3.6-9.6,0-13.3
	c3.5-3.6,9.2-3.6,12.7-0.2C208.9,88.9,208.9,88.9,209,89 M202.5,83.7c-3.2-0.1-6.3,1.2-8.6,3.5c-4.6,4.6-4.7,12-0.1,16.7l0.1,0.1
	c4.8,4.7,12.4,4.7,17.2,0c4.6-4.6,4.7-12,0.1-16.7l-0.1-0.1C208.8,84.9,205.7,83.6,202.5,83.7 M176.9,84l-6,8.6V84H168v23.3h2.9
	v-9.8l1.5-2.2l8.4,12h3.4l-10-14.4l6.1-8.9H176.9z M144.7,84v23.3h12.6v-2.5h-9.7V97h9.7v-2.5h-9.7v-7.8h9.7V84H144.7z M131.2,92.7
	c1-0.9,1.5-2.2,1.5-3.6s-0.5-2.7-1.5-3.6c-1-1-2.4-1.6-3.8-1.5H120v23.3h8c1.8-0.2,3.5-1,4.8-2.3c1.5-1.4,2.4-3.4,2.4-5.5
	s-0.8-4-2.3-5.4C132.4,93.5,131.8,93,131.2,92.7 M127.3,86.5c0.6,0,1.2,0.3,1.7,0.7c0.5,0.5,0.8,1.2,0.7,1.9c0,0.7-0.3,1.4-0.8,1.9
	c-0.4,0.4-0.9,0.6-1.5,0.6h-4.7v-5.1H127.3z M122.9,104.7V94.2h4.2c1.3,0,2.6,0.5,3.5,1.5c2,2.1,2,5.4,0,7.5c-0.9,1-2.2,1.5-3.5,1.5
	H122.9z M106.6,84l-7.4,9.8L91.7,84h-3.1v23.3h2.9V88.4l7.7,10l7.6-10v18.9h2.9V84H106.6z M65.6,84v23.3h12.7v-2.5h-9.7V97h9.7v-2.5
	h-9.7v-7.8h9.7V84H65.6z M56.3,86.5V84h-14v2.5h5.6v20.7h2.9V86.6L56.3,86.5z M14,84v23.3h2.9V89.2l12.9,18.1H33V84h-2.9v18.6
	L16.9,84H14z M0.4,107.3h2.9V84H0.4V107.3z"/>
<path class="st0" d="M207.5,128.5v8.5h1.1v-6.7l4.8,6.7h1.2v-8.6h-1.1v6.8l-4.9-6.8L207.5,128.5z M201.9,130.3
	c1.3,1.4,1.3,3.5,0,4.9c-0.6,0.6-1.5,1-2.4,1s-1.7-0.4-2.4-1c-1.3-1.4-1.3-3.5,0-4.9c0.6-0.6,1.5-1,2.4-1S201.2,129.7,201.9,130.3
	 M199.5,128.4c-1.2,0-2.3,0.4-3.1,1.3c-1.7,1.7-1.7,4.4,0,6.1l0,0c1.7,1.7,4.6,1.7,6.3,0s1.7-4.4,0-6.1l0,0
	C201.8,128.8,200.7,128.3,199.5,128.4 M190.3,137h1.1v-8.6h-1.1V137z M186.9,129.4v-0.9h-5.1v0.9h2v7.6h1.1v-7.6H186.9z
	 M175.4,128.4l-3.1,8.6h1.1l1.3-3.6h2.3l1.3,3.6h1.1l-3.1-8.6H175.4z M175,132.5l0.8-2.3l0.8,2.3H175z M168,137h1.2l-1.9-3
	c0.4-0.1,0.7-0.4,1-0.7c1.1-1.1,1.1-2.9,0-4c-0.5-0.5-1.1-0.8-1.8-0.9h-2.4v8.5h1.1v-2.8h1L168,137z M166.3,129.4
	c0.5,0,1,0.2,1.3,0.6c0.7,0.8,0.7,2,0,2.8c-0.3,0.4-0.8,0.6-1.3,0.6h-1.1v-3.9L166.3,129.4z M160.7,129.4v-0.9h-5.1v0.9h2v7.6h1.1
	v-7.6H160.7z M151,133.3c0.3,0.3,0.5,0.8,0.5,1.2c0,0.5-0.2,0.9-0.5,1.2s-0.7,0.5-1.1,0.5c-0.4,0-0.8-0.2-1.1-0.5
	c-0.3-0.4-0.5-0.9-0.5-1.4l-1,0.4c0.1,0.6,0.3,1.2,0.8,1.6c1.1,1.1,2.8,1.1,3.8,0c0.5-0.5,0.8-1.2,0.8-1.9s-0.3-1.4-0.8-1.9
	s-1.1-0.8-1.7-1c-0.3-0.1-0.6-0.3-0.8-0.6c-0.4-0.4-0.4-1.1,0-1.5c0.2-0.2,0.4-0.3,0.7-0.3s0.5,0.1,0.7,0.3c0.1,0.2,0.3,0.4,0.3,0.6
	l1-0.4c-0.1-0.3-0.3-0.6-0.5-0.9c-0.4-0.4-0.9-0.6-1.4-0.6s-1.1,0.2-1.4,0.6c-0.4,0.4-0.6,0.8-0.6,1.4c0,0.5,0.2,1,0.6,1.3
	c0.4,0.4,0.9,0.7,1.5,0.9C150.4,132.7,150.7,133,151,133.3 M142.5,137h1.1v-8.6h-1.1V137z M131.5,128.4v8.6h1.1v-6.7l4.7,6.7h1.2
	v-8.6h-1.1v6.8l-4.9-6.8H131.5z M126.5,137h1.1v-8.6h-1.1V137z M121.5,128.4l-2.7,3.6l-2.7-3.6H115v8.6h1v-6.9l2.8,3.7l2.8-3.7v6.9
	h1.1v-8.6H121.5z M106.8,129.4c0.9-0.1,1.8,0.3,2.5,0.9c0.7,0.6,1,1.5,1,2.4s-0.3,1.8-1,2.4c-0.7,0.6-1.6,0.9-2.5,0.9h-0.7v-6.6
	L106.8,129.4L106.8,129.4z M105,128.4v8.6h1.8c1.2,0.1,2.4-0.4,3.3-1.2c1.7-1.7,1.7-4.4,0-6.1l0,0c-0.9-0.8-2.1-1.3-3.3-1.2H105
	V128.4z M97.8,128.4l-3.1,8.6h1.1l1.3-3.6h2.3l1.3,3.6h1.1l-3.1-8.6H97.8z M97.4,132.5l0.8-2.3l0.8,2.3H97.4z M86.3,129.4v-0.9h-5.1
	v0.9h2v7.6h1.1v-7.6H86.3z M70.8,128.4v8.6h1.1v-6.7l4.8,6.7h1.2v-8.6h-1.1v6.8l-4.9-6.8H70.8z M62.3,128.4v8.6H67v-0.9h-3.6v-2.9
	H67v-0.9h-3.6v-2.9H67v-0.9L62.3,128.4z M57.4,128.4l-2.7,3.6l-2.7-3.6h-1.1v8.6H52v-6.9l2.8,3.7l2.8-3.7v6.9h1.1v-8.6H57.4z
	 M47.4,129.4v-0.9h-5.1v0.9h2v7.6h1.1v-7.6H47.4z M37.7,133.3c0.3,0.3,0.5,0.8,0.5,1.2c0,0.5-0.2,0.9-0.5,1.2s-0.7,0.5-1.2,0.5
	c-0.4,0-0.8-0.2-1.1-0.5c-0.3-0.4-0.5-0.9-0.5-1.4l-1,0.4c0.1,0.6,0.3,1.1,0.8,1.6c1.1,1.1,2.8,1.1,3.8,0c0.5-0.5,0.8-1.2,0.8-1.9
	s-0.3-1.4-0.8-1.9s-1.1-0.8-1.7-1c-0.3-0.1-0.6-0.3-0.8-0.6c-0.4-0.4-0.4-1.1,0-1.5c0.2-0.2,0.4-0.3,0.7-0.3s0.5,0.1,0.7,0.3
	c0.1,0.2,0.2,0.4,0.3,0.6l1-0.4c-0.1-0.3-0.3-0.6-0.6-0.8c-0.4-0.4-0.9-0.6-1.5-0.6c-0.5,0-1.1,0.2-1.4,0.6
	c-0.4,0.4-0.6,0.8-0.6,1.4c0,0.5,0.2,1,0.5,1.3c0.4,0.4,0.9,0.7,1.5,0.9C37,132.7,37.4,133,37.7,133.3 M25.7,128.5v8.5h4.6v-0.9
	h-3.6v-2.9h3.6v-0.9h-3.6v-2.9h3.6v-0.9L25.7,128.5z M19,135.1l-2.3-6.6h-1.1l3.1,8.5h0.8l3.1-8.6h-1.1L19,135.1z M5.4,128.5v8.5
	h1.1v-6.7l4.7,6.7h1.2v-8.6h-1.1v6.8l-4.9-6.8L5.4,128.5z M0.4,137h1.1v-8.6H0.4V137z"/>
<radialGradient id="SVGID_1_" cx="-710.7023" cy="331.8356" r="0.9981" gradientTransform="matrix(107.1 0 0 -107.1 76223.7188 35658.207)" gradientUnits="userSpaceOnUse">
	<stop  offset="0" style="stop-color:#F6A76C"/>
	<stop  offset="0.4" style="stop-color:#F4A56B"/>
	<stop  offset="0.58" style="stop-color:#EDA068"/>
	<stop  offset="0.71" style="stop-color:#E09762"/>
	<stop  offset="0.82" style="stop-color:#CE8A5A"/>
	<stop  offset="0.91" style="stop-color:#B77950"/>
	<stop  offset="0.99" style="stop-color:#9B6443"/>
	<stop  offset="1" style="stop-color:#996242"/>
</radialGradient>
<polyline class="st1" points="0.4,117 214.6,117 214.6,119 0.4,119 "/>
<g>
	<g>
		<defs>
			<path id="SVGID_2_" d="M98,32.9c0-5.2,4.2-9.5,9.5-9.5c5.2,0,9.5,4.2,9.5,9.5c0,5.2-4.2,9.5-9.5,9.5l0,0
				C102.3,42.4,98,38.1,98,32.9 M94.2,32.9c0,7.4,6,13.3,13.3,13.3s13.3-6,13.3-13.3s-6-13.3-13.3-13.3l0,0
				C100.1,19.6,94.2,25.5,94.2,32.9"/>
		</defs>
		<clipPath id="SVGID_3_">
			<use xlink:href="#SVGID_2_"  style="overflow:visible;"/>
		</clipPath>
		<g class="st2">
			
				<linearGradient id="SVGID_4_" gradientUnits="userSpaceOnUse" x1="-699.384" y1="319.347" x2="-698.384" y2="319.347" gradientTransform="matrix(26.63 0 0 -26.63 18719.0586 8537.0098)">
				<stop  offset="0" style="stop-color:#996242"/>
				<stop  offset="0.19" style="stop-color:#BA7B51"/>
				<stop  offset="0.38" style="stop-color:#D48E5D"/>
				<stop  offset="0.58" style="stop-color:#E79C65"/>
				<stop  offset="0.78" style="stop-color:#F2A46A"/>
				<stop  offset="1" style="stop-color:#F6A76C"/>
			</linearGradient>
			<rect x="94.2" y="19.5" class="st3" width="26.6" height="26.6"/>
		</g>
	</g>
</g>
<g>
	<defs>
		<path id="SVGID_5_" d="M96.6,61.9H78.3V38.7L96.6,61.9z M78.3,3.8h18.2L78.3,26.5V3.8z M74.4,37.4h-18V3.8h18V37.4z M74.4,61.9
			h-18V41.2h18V61.9z M104.6,0h-52v65.7h52L78.4,32.5L104.6,0z"/>
	</defs>
	<clipPath id="SVGID_6_">
		<use xlink:href="#SVGID_5_"  style="overflow:visible;"/>
	</clipPath>
	<g class="st4">
		
			<linearGradient id="SVGID_7_" gradientUnits="userSpaceOnUse" x1="-706.7314" y1="327.8908" x2="-705.7318" y2="327.8908" gradientTransform="matrix(52.02 0 0 -52.02 36816.2305 17089.7305)">
			<stop  offset="0" style="stop-color:#996242"/>
			<stop  offset="0.19" style="stop-color:#BA7B51"/>
			<stop  offset="0.38" style="stop-color:#D48E5D"/>
			<stop  offset="0.58" style="stop-color:#E79C65"/>
			<stop  offset="0.78" style="stop-color:#F2A46A"/>
			<stop  offset="1" style="stop-color:#F6A76C"/>
		</linearGradient>
		<rect x="52.5" class="st5" width="52" height="65.7"/>
	</g>
</g>
<g>
	<defs>
		<path id="SVGID_8_" d="M158.6,15.7h-18V3.8h18V15.7z M158.6,61.9h-18V19.5h18V61.9z M136.6,26.5L118.4,3.8h18.2V26.5z M136.6,61.9
			h-18.3l18.3-23.2V61.9z M136.8,0h-26.3l26.2,32.5l-26.1,33.2h52V0H136.8z"/>
	</defs>
	<clipPath id="SVGID_9_">
		<use xlink:href="#SVGID_8_"  style="overflow:visible;"/>
	</clipPath>
	<g class="st6">
		
			<linearGradient id="SVGID_10_" gradientUnits="userSpaceOnUse" x1="-706.7314" y1="327.891" x2="-705.7318" y2="327.891" gradientTransform="matrix(52.02 0 0 -52.02 36874.1289 17089.7402)">
			<stop  offset="0" style="stop-color:#996242"/>
			<stop  offset="0.19" style="stop-color:#BA7B51"/>
			<stop  offset="0.38" style="stop-color:#D48E5D"/>
			<stop  offset="0.58" style="stop-color:#E79C65"/>
			<stop  offset="0.78" style="stop-color:#F2A46A"/>
			<stop  offset="1" style="stop-color:#F6A76C"/>
		</linearGradient>
		<rect x="110.4" class="st7" width="52" height="65.7"/>
	</g>
</g>
</svg>
